<svg xmlns="http://www.w3.org/2000/svg" width="35.331" height="24.66" viewBox="0 0 35.331 24.66">
  <g id="Icon_ionic-ios-menu" data-name="Icon ionic-ios-menu" transform="translate(-4.5 -10.125)">
    <path id="Path_17" data-name="Path 17" d="M38.358,13.648H5.972A1.641,1.641,0,0,1,4.5,11.886h0a1.641,1.641,0,0,1,1.472-1.761H38.358a1.641,1.641,0,0,1,1.472,1.761h0A1.641,1.641,0,0,1,38.358,13.648Z" transform="translate(0 0)" fill="#fff"/>
    <path id="Path_18" data-name="Path 18" d="M38.358,20.4H5.972A1.641,1.641,0,0,1,4.5,18.636h0a1.641,1.641,0,0,1,1.472-1.761H38.358a1.641,1.641,0,0,1,1.472,1.761h0A1.641,1.641,0,0,1,38.358,20.4Z" transform="translate(0 3.819)" fill="#fff"/>
    <path id="Path_19" data-name="Path 19" d="M38.358,27.148H5.972A1.641,1.641,0,0,1,4.5,25.386h0a1.641,1.641,0,0,1,1.472-1.761H38.358a1.641,1.641,0,0,1,1.472,1.761h0A1.641,1.641,0,0,1,38.358,27.148Z" transform="translate(0 7.637)" fill="#fff"/>
  </g>
</svg>
