<svg xmlns="http://www.w3.org/2000/svg" width="102.587" height="85.524" viewBox="0 0 102.587 85.524">
  <g id="Group_8" data-name="Group 8" transform="translate(-139.514 -117.996)">
    <rect id="Rectangle_249" data-name="Rectangle 249" width="8.747" height="4.587" rx="2.218" transform="matrix(0.908, -0.419, 0.419, 0.908, 140.841, 122.986)" fill="none" stroke="#fff" stroke-miterlimit="10" stroke-width="2"/>
    <line id="Line_191" data-name="Line 191" x2="0.085" y2="51.244" transform="translate(186.782 151.315)" fill="none" stroke="#fff" stroke-miterlimit="10" stroke-width="2"/>
    <line id="Line_192" data-name="Line 192" y1="15.471" x2="53.951" transform="translate(186.866 187.088)" fill="none" stroke="#fff" stroke-miterlimit="10" stroke-width="2"/>
    <line id="Line_193" data-name="Line 193" y1="51.694" x2="0.284" transform="translate(240.817 135.394)" fill="none" stroke="#fff" stroke-miterlimit="10" stroke-width="2"/>
    <line id="Line_194" data-name="Line 194" x1="40.872" y2="4.056" transform="translate(199.122 135.258)" fill="none" stroke="#fff" stroke-miterlimit="10" stroke-width="2"/>
    <line id="Line_195" data-name="Line 195" transform="translate(186.781 151.315)" fill="none" stroke="#fff" stroke-miterlimit="10" stroke-width="2"/>
    <line id="Line_196" data-name="Line 196" y1="1.722" x2="20.639" transform="translate(180.869 130.187)" fill="none" stroke="#fff" stroke-miterlimit="10" stroke-width="2"/>
    <line id="Line_197" data-name="Line 197" x1="39.593" y1="5.206" transform="translate(201.508 130.187)" fill="none" stroke="#fff" stroke-miterlimit="10" stroke-width="2"/>
    <line id="Line_198" data-name="Line 198" x1="0.636" y2="26.506" transform="translate(146.314 161.241)" fill="none" stroke="#fff" stroke-miterlimit="10" stroke-width="2"/>
    <line id="Line_199" data-name="Line 199" x1="40.552" y1="14.812" transform="translate(146.314 187.746)" fill="none" stroke="#fff" stroke-miterlimit="10" stroke-width="2"/>
    <line id="Line_200" data-name="Line 200" y1="11.671" x2="54.126" transform="translate(186.781 170.72)" fill="none" stroke="#fff" stroke-miterlimit="10" stroke-width="2"/>
    <line id="Line_201" data-name="Line 201" y1="9.087" x2="54.228" transform="translate(186.781 152.13)" fill="none" stroke="#fff" stroke-miterlimit="10" stroke-width="2"/>
    <line id="Line_202" data-name="Line 202" x2="0.205" y2="18.439" transform="translate(217.375 137.617)" fill="none" stroke="#fff" stroke-miterlimit="10" stroke-width="2"/>
    <line id="Line_203" data-name="Line 203" x2="0.485" y2="20.079" transform="translate(207.389 157.763)" fill="none" stroke="#fff" stroke-miterlimit="10" stroke-width="2"/>
    <line id="Line_204" data-name="Line 204" x1="0.068" y2="19.277" transform="translate(226.486 154.552)" fill="none" stroke="#fff" stroke-miterlimit="10" stroke-width="2"/>
    <line id="Line_205" data-name="Line 205" transform="translate(168.895 156.673)" fill="none" stroke="#fff" stroke-miterlimit="10" stroke-width="2"/>
    <line id="Line_206" data-name="Line 206" x2="25.145" y2="5.98" transform="translate(161.636 155.236)" fill="none" stroke="#fff" stroke-miterlimit="10" stroke-width="2"/>
    <line id="Line_207" data-name="Line 207" x1="0.165" y2="19.078" transform="translate(161.471 155.236)" fill="none" stroke="#fff" stroke-miterlimit="10" stroke-width="2"/>
    <line id="Line_208" data-name="Line 208" x2="40.03" y2="12.829" transform="translate(146.751 169.562)" fill="none" stroke="#fff" stroke-miterlimit="10" stroke-width="2"/>
    <line id="Line_209" data-name="Line 209" y2="19.467" transform="translate(168.972 176.555)" fill="none" stroke="#fff" stroke-miterlimit="10" stroke-width="2"/>
    <line id="Line_210" data-name="Line 210" y2="17.953" transform="translate(217.478 175.827)" fill="none" stroke="#fff" stroke-miterlimit="10" stroke-width="2"/>
    <line id="Line_211" data-name="Line 211" x2="36.507" y2="5.707" transform="translate(180.869 131.91)" fill="none" stroke="#fff" stroke-miterlimit="10" stroke-width="2"/>
    <line id="Line_212" data-name="Line 212" y1="2.17" x2="22.183" transform="translate(199.122 132.79)" fill="none" stroke="#fff" stroke-miterlimit="10" stroke-width="2"/>
    <line id="Line_213" data-name="Line 213" x2="5.231" y2="3.922" transform="translate(156.405 151.315)" fill="#e44319" stroke="#fff" stroke-miterlimit="10" stroke-width="2"/>
    <line id="Line_214" data-name="Line 214" x2="0.083" y2="6.331" transform="translate(161.553 148.905)" fill="none" stroke="#fff" stroke-miterlimit="10" stroke-width="2"/>
    <line id="Line_215" data-name="Line 215" y1="2.41" x2="5.149" transform="translate(156.405 148.905)" fill="#e44319" stroke="#fff" stroke-miterlimit="10" stroke-width="2"/>
    <line id="Line_216" data-name="Line 216" x2="10.28" y2="20.85" transform="translate(148.863 125.542)" fill="none" stroke="#fff" stroke-miterlimit="10" stroke-width="2"/>
    <line id="Line_217" data-name="Line 217" x2="10.508" y2="21.313" transform="translate(143.262 128.125)" fill="none" stroke="#fff" stroke-miterlimit="10" stroke-width="2"/>
    <line id="Line_218" data-name="Line 218" x2="10.377" y2="21.046" transform="translate(147.285 126.269)" fill="none" stroke="#fff" stroke-miterlimit="10" stroke-width="2"/>
    <line id="Line_219" data-name="Line 219" x2="10.246" y2="20.781" transform="translate(145.734 126.985)" fill="none" stroke="#fff" stroke-miterlimit="10" stroke-width="2"/>
    <line id="Line_220" data-name="Line 220" y1="3.179" x2="0.041" transform="translate(161.553 145.726)" fill="none" stroke="#fff" stroke-miterlimit="10" stroke-width="2"/>
    <line id="Line_221" data-name="Line 221" x1="2.718" y1="1.979" transform="translate(153.687 149.336)" fill="none" stroke="#fff" stroke-miterlimit="10" stroke-width="2"/>
    <path id="Path_27" data-name="Path 27" d="M171.443,187.962c1.105.079,1.977-.349,2.165-.968a1.065,1.065,0,0,0-.028-.655" transform="translate(-17.614 -38.573)" fill="none" stroke="#fff" stroke-miterlimit="10" stroke-width="2"/>
    <path id="Path_28" data-name="Path 28" d="M176.489,185.464a1.072,1.072,0,0,0,1.446-.138,1.057,1.057,0,0,0,.188-.511" transform="translate(-20.518 -37.696)" fill="none" stroke="#fff" stroke-miterlimit="10" stroke-width="2"/>
    <path id="Path_29" data-name="Path 29" d="M180.171,183.794a1.072,1.072,0,0,0,1.4-.372,1.057,1.057,0,0,0,.1-.534" transform="translate(-22.637 -36.587)" fill="none" stroke="#fff" stroke-miterlimit="10" stroke-width="2"/>
    <path id="Path_30" data-name="Path 30" d="M183.576,181.582a1.508,1.508,0,0,0,1.177.191,1.816,1.816,0,0,0,1.11-1.031" transform="translate(-24.597 -35.352)" fill="none" stroke="#fff" stroke-miterlimit="10" stroke-width="2"/>
    <line id="Line_222" data-name="Line 222" x2="10.508" y2="21.313" transform="translate(151.066 124.525)" fill="none" stroke="#fff" stroke-miterlimit="10" stroke-width="2"/>
    <line id="Line_223" data-name="Line 223" y1="3.765" x2="8.164" transform="translate(143.082 124.442)" fill="none" stroke="#fff" stroke-miterlimit="10" stroke-width="2"/>
    <rect id="Rectangle_250" data-name="Rectangle 250" width="8.747" height="1.883" transform="matrix(0.908, -0.419, 0.419, 0.908, 142.37, 126.346)" fill="#fff" stroke="#fff" stroke-miterlimit="10" stroke-width="2"/>
    <path id="Path_31" data-name="Path 31" d="M179.656,192.592a13.988,13.988,0,0,0,3.875-1.788,16.489,16.489,0,0,0,.065,4.654,7.1,7.1,0,0,0-2.635-1.972,1.911,1.911,0,0,1-.831-.518,5.542,5.542,0,0,0,2.7-1.023,5.106,5.106,0,0,0-.16,2.1,2.867,2.867,0,0,0-1.112-.942" transform="translate(-22.341 -41.143)" fill="none" stroke="#fff" stroke-miterlimit="10" stroke-width="2"/>
  </g>
</svg>
