<svg xmlns="http://www.w3.org/2000/svg" width="59.88" height="59.88" viewBox="0 0 59.88 59.88">
  <path id="Icon_material-nfc" data-name="Icon material-nfc" d="M56.892,3H8.988A6.006,6.006,0,0,0,3,8.988v47.9A6.006,6.006,0,0,0,8.988,62.88h47.9a6.006,6.006,0,0,0,5.988-5.988V8.988A6.006,6.006,0,0,0,56.892,3Zm0,53.892H8.988V8.988h47.9ZM50.9,14.976H35.934a6.006,6.006,0,0,0-5.988,5.988V27.79a5.928,5.928,0,0,0-2.994,5.15,5.988,5.988,0,0,0,11.976,0,5.891,5.891,0,0,0-2.994-5.15V20.964h8.982V44.916H20.964V20.964h5.988V14.976H14.976V50.9H50.9Z" transform="translate(-3 -3)" fill="#fff"/>
</svg>
