<svg xmlns="http://www.w3.org/2000/svg" width="60.729" height="60.729" viewBox="0 0 60.729 60.729">
  <path id="Icon_metro-qrcode" data-name="Icon metro-qrcode" d="M21.549,5.724H6.366V20.906H21.549Zm3.8-3.8V24.7H2.571V1.928ZM10.162,9.519h7.591V17.11H10.162ZM59.5,5.724H44.322V20.906H59.5Zm3.8-3.8V24.7H40.526V1.928H63.3ZM48.118,9.519h7.591V17.11H48.118ZM21.549,43.679H6.366V58.862H21.549Zm3.8-3.8V62.657H2.571V39.884ZM10.162,47.475h7.591v7.591H10.162ZM29.14,1.928h3.8v3.8h-3.8Zm3.8,3.8h3.8v3.8h-3.8Zm-3.8,3.8h3.8v3.8h-3.8Zm3.8,3.8h3.8v3.8h-3.8Zm-3.8,3.8h3.8v3.8h-3.8Zm3.8,3.8h3.8v3.8h-3.8Zm-3.8,3.8h3.8v3.8h-3.8Zm0,7.591h3.8v3.8h-3.8Zm3.8,3.8h3.8v3.8h-3.8Zm-3.8,3.8h3.8v3.8h-3.8Zm3.8,3.8h3.8v3.8h-3.8Zm-3.8,3.8h3.8v3.8h-3.8Zm3.8,3.8h3.8v3.8h-3.8Zm-3.8,3.8h3.8v3.8h-3.8Zm3.8,3.8h3.8v3.8h-3.8ZM59.5,32.293h3.8v3.8H59.5Zm-53.138,0h3.8v3.8h-3.8Zm3.8-3.8h3.8v3.8h-3.8Zm-7.591,0h3.8v3.8h-3.8Zm15.182,0h3.8v3.8h-3.8Zm3.8,3.8h3.8v3.8h-3.8Zm3.8-3.8h3.8v3.8h-3.8Zm11.387,3.8h3.8v3.8h-3.8Zm3.8-3.8h3.8v3.8h-3.8Zm3.8,3.8h3.8v3.8h-3.8Zm3.8-3.8h3.8v3.8h-3.8Zm3.8,3.8h3.8v3.8h-3.8Zm3.8-3.8h3.8v3.8h-3.8Zm3.8,11.387h3.8v3.8H59.5Zm-22.773,0h3.8v3.8h-3.8Zm3.8-3.8h3.8v3.8h-3.8Zm3.8,3.8h3.8v3.8h-3.8Zm7.591,0h3.8v3.8h-3.8Zm3.8-3.8h3.8v3.8h-3.8Zm3.8,11.387h3.8v3.8H59.5Zm-22.773,0h3.8v3.8h-3.8Zm3.8-3.8h3.8v3.8h-3.8Zm7.591,0h3.8v3.8h-3.8Zm3.8,3.8h3.8v3.8h-3.8Zm3.8-3.8h3.8v3.8h-3.8Zm3.8,11.387h3.8v3.8H59.5Zm-18.978-3.8h3.8v3.8h-3.8Zm3.8,3.8h3.8v3.8h-3.8Zm3.8-3.8h3.8v3.8h-3.8Zm3.8,3.8h3.8v3.8h-3.8Zm-11.387,3.8h3.8v3.8h-3.8Zm7.591,0h3.8v3.8h-3.8Zm7.591,0h3.8v3.8h-3.8Z" transform="translate(-2.571 -1.928)" fill="#fff"/>
</svg>
